<svg width="24" height="24" viewBox="0 0 24 24" fill="none" xmlns="http://www.w3.org/2000/svg">
<g clip-path="url(#clip0)">
<path d="M5.99974 0C5.52634 0 5.14258 0.383755 5.14258 0.857159V2.57143H6.85685V0.857159C6.85685 0.383755 6.4731 0 5.99974 0Z" fill="white"/>
<path d="M17.9997 0C17.5263 0 17.1426 0.383755 17.1426 0.857159V2.57143H18.8568V0.857159C18.8569 0.383755 18.4731 0 17.9997 0Z" fill="white"/>
<path d="M21.4286 2.57153H18.8571V6.00012C18.8571 6.47352 18.4734 6.85728 18 6.85728C17.5266 6.85728 17.1428 6.47352 17.1428 6.00012V2.57153H6.85712V6.00012C6.85712 6.47352 6.47337 6.85728 5.99996 6.85728C5.52656 6.85728 5.1428 6.47352 5.1428 6.00012V2.57153H2.57143C1.15127 2.57153 0 3.7228 0 5.14296V21.4287C0 22.8488 1.15127 24.0001 2.57143 24.0001H21.4286C22.8487 24.0001 24 22.8488 24 21.4287V5.14296C24 3.7228 22.8487 2.57153 21.4286 2.57153ZM22.2857 21.4287C22.2857 21.9021 21.9019 22.2858 21.4285 22.2858H2.57143C2.09802 22.2858 1.71427 21.9021 1.71427 21.4287V10.2858H22.2857V21.4287Z" fill="white"/>
<path d="M6.85757 11.9998H5.14329C4.66989 11.9998 4.28613 12.3835 4.28613 12.8569C4.28613 13.3303 4.66989 13.7141 5.14329 13.7141H6.85757C7.33097 13.7141 7.71473 13.3303 7.71473 12.8569C7.71473 12.3835 7.33097 11.9998 6.85757 11.9998Z" fill="white"/>
<path d="M12.8576 11.9998H11.1433C10.6699 11.9998 10.2861 12.3835 10.2861 12.8569C10.2861 13.3303 10.6699 13.7141 11.1433 13.7141H12.8576C13.331 13.7141 13.7147 13.3303 13.7147 12.8569C13.7147 12.3835 13.331 11.9998 12.8576 11.9998Z" fill="white"/>
<path d="M18.8576 11.9998H17.1433C16.6699 11.9998 16.2861 12.3835 16.2861 12.8569C16.2861 13.3303 16.6699 13.7141 17.1433 13.7141H18.8576C19.331 13.7141 19.7147 13.3303 19.7147 12.8569C19.7147 12.3835 19.3309 11.9998 18.8576 11.9998Z" fill="white"/>
<path d="M6.85757 15.4287H5.14329C4.66989 15.4287 4.28613 15.8125 4.28613 16.2859C4.28613 16.7593 4.66989 17.143 5.14329 17.143H6.85757C7.33097 17.143 7.71473 16.7593 7.71473 16.2859C7.71473 15.8125 7.33097 15.4287 6.85757 15.4287Z" fill="white"/>
<path d="M12.8576 15.4287H11.1433C10.6699 15.4287 10.2861 15.8125 10.2861 16.2859C10.2861 16.7593 10.6699 17.143 11.1433 17.143H12.8576C13.331 17.143 13.7147 16.7593 13.7147 16.2859C13.7147 15.8125 13.331 15.4287 12.8576 15.4287Z" fill="white"/>
<path d="M18.8576 15.4287H17.1433C16.6699 15.4287 16.2861 15.8125 16.2861 16.2859C16.2861 16.7593 16.6699 17.143 17.1433 17.143H18.8576C19.331 17.143 19.7147 16.7593 19.7147 16.2859C19.7147 15.8125 19.3309 15.4287 18.8576 15.4287Z" fill="white"/>
<path d="M6.85757 18.8572H5.14329C4.66989 18.8572 4.28613 19.2409 4.28613 19.7143C4.28613 20.1877 4.66989 20.5714 5.14329 20.5714H6.85757C7.33097 20.5714 7.71473 20.1877 7.71473 19.7143C7.71473 19.2409 7.33097 18.8572 6.85757 18.8572Z" fill="white"/>
<path d="M12.8576 18.8572H11.1433C10.6699 18.8572 10.2861 19.2409 10.2861 19.7143C10.2861 20.1877 10.6699 20.5715 11.1433 20.5715H12.8576C13.331 20.5715 13.7147 20.1877 13.7147 19.7143C13.7147 19.2409 13.331 18.8572 12.8576 18.8572Z" fill="white"/>
<path d="M18.8576 18.8572H17.1433C16.6699 18.8572 16.2861 19.2409 16.2861 19.7143C16.2861 20.1877 16.6699 20.5715 17.1433 20.5715H18.8576C19.331 20.5715 19.7147 20.1877 19.7147 19.7143C19.7147 19.2409 19.3309 18.8572 18.8576 18.8572Z" fill="white"/>
</g>
<defs>
<clipPath id="clip0">
<rect width="24" height="24" fill="white"/>
</clipPath>
</defs>
</svg>
