<svg width="30" height="30" viewBox="0 0 30 30" fill="none" xmlns="http://www.w3.org/2000/svg">
<path d="M22.1669 16.8773C22.1066 16.8492 19.8472 15.7696 19.4457 15.6294C19.2818 15.5723 19.1062 15.5166 18.9194 15.5166C18.6144 15.5166 18.3581 15.6641 18.1584 15.9539C17.9327 16.2794 17.2495 17.0543 17.0384 17.2858C17.0108 17.3164 16.9732 17.3529 16.9507 17.3529C16.9304 17.3529 16.5808 17.2132 16.4749 17.1686C14.0512 16.147 12.2115 13.6904 11.9593 13.2761C11.9233 13.2165 11.9218 13.1895 11.9215 13.1895C11.9303 13.1579 12.0118 13.0787 12.0539 13.0378C12.1769 12.9196 12.3103 12.7639 12.4393 12.6132C12.5003 12.5419 12.5615 12.4704 12.6216 12.403C12.8087 12.1917 12.8921 12.0277 12.9887 11.8377L13.0393 11.739C13.2751 11.2843 13.0737 10.9006 13.0086 10.7767C12.9551 10.673 12.0011 8.43885 11.8997 8.20413C11.6558 7.63774 11.3335 7.37402 10.8856 7.37402C10.8441 7.37402 10.8856 7.37402 10.7114 7.38115C10.4992 7.38984 9.34351 7.53747 8.83255 7.85C8.29069 8.18148 7.37402 9.23811 7.37402 11.0963C7.37402 12.7688 8.46779 14.3479 8.93739 14.9484C8.94907 14.9635 8.9705 14.9943 9.00159 15.0384C10.8 17.587 13.042 19.4757 15.3147 20.3566C17.5028 21.2047 18.5389 21.3027 19.1279 21.3027C19.128 21.3027 19.128 21.3027 19.128 21.3027C19.3756 21.3027 19.5737 21.2839 19.7485 21.2672L19.8594 21.2569C20.6152 21.1919 22.2763 20.3567 22.6541 19.3379C22.9518 18.5354 23.0303 17.6586 22.8323 17.3404C22.6966 17.1241 22.4629 17.0152 22.1669 16.8773Z" fill="white"/>
<path d="M15.0099 0C7.02139 0 0.522289 6.45026 0.522289 14.3787C0.522289 16.943 1.20855 19.4532 2.50858 21.65L0.0202803 28.9901C-0.0260708 29.1269 0.00840522 29.2782 0.109631 29.3813C0.1827 29.4559 0.281819 29.4961 0.383044 29.4961C0.42183 29.4961 0.460902 29.4903 0.499018 29.4781L8.15269 27.046C10.2471 28.165 12.6143 28.7557 15.01 28.7557C22.9977 28.7558 29.4961 22.3062 29.4961 14.3787C29.4961 6.45026 22.9977 0 15.0099 0ZM15.0099 25.7606C12.7556 25.7606 10.5722 25.1097 8.69539 23.8781C8.63228 23.8367 8.55902 23.8154 8.48528 23.8154C8.44631 23.8154 8.40723 23.8214 8.36921 23.8334L4.5352 25.0521L5.77288 21.4007C5.81292 21.2825 5.7929 21.1521 5.71916 21.0514C4.28994 19.0985 3.53444 16.7912 3.53444 14.3787C3.53444 8.10185 8.68228 2.99519 15.0098 2.99519C21.3365 2.99519 26.4838 8.10185 26.4838 14.3787C26.4839 20.6547 21.3367 25.7606 15.0099 25.7606Z" fill="white"/>
</svg>
